<svg width="168" height="28" viewBox="0 0 168 28" fill="none" xmlns="http://www.w3.org/2000/svg">
<path fill-rule="evenodd" clip-rule="evenodd" d="M20.6364 16.1818H1V21.6364C1 23.1426 5.39575 24.3636 10.8182 24.3636C16.2406 24.3636 20.6364 23.1426 20.6364 21.6364V16.1818Z" fill="url(#paint0_linear_56_401)" fill-opacity="0.4"/>
<path d="M1 16.1818V15.6818H0.5V16.1818H1ZM20.6364 16.1818H21.1364V15.6818H20.6364V16.1818ZM1 16.6818H20.6364V15.6818H1V16.6818ZM1.5 21.6364V16.1818H0.5V21.6364H1.5ZM10.8182 23.8636C8.13889 23.8636 5.73148 23.5614 4.0095 23.0831C3.145 22.8429 2.48163 22.5661 2.04603 22.28C1.59007 21.9806 1.5 21.7525 1.5 21.6364H0.5C0.5 22.2733 0.959394 22.7627 1.49709 23.1159C2.05514 23.4824 2.82962 23.7932 3.74186 24.0466C5.57337 24.5554 8.07505 24.8636 10.8182 24.8636V23.8636ZM20.1364 21.6364C20.1364 21.7525 20.0463 21.9806 19.5903 22.28C19.1547 22.5661 18.4914 22.8429 17.6269 23.0831C15.9049 23.5614 13.4975 23.8636 10.8182 23.8636V24.8636C13.5613 24.8636 16.063 24.5554 17.8945 24.0466C18.8067 23.7932 19.5812 23.4824 20.1393 23.1159C20.677 22.7627 21.1364 22.2733 21.1364 21.6364H20.1364ZM20.1364 16.1818V21.6364H21.1364V16.1818H20.1364Z" fill="white"/>
<ellipse cx="10.8182" cy="16.1818" rx="9.81818" ry="2.72727" fill="url(#paint1_linear_56_401)" fill-opacity="0.4" stroke="white"/>
<path fill-rule="evenodd" clip-rule="evenodd" d="M20.6364 11.2727H1V16.7273C1 18.2335 5.39575 19.4546 10.8182 19.4546C16.2406 19.4546 20.6364 18.2335 20.6364 16.7273V11.2727Z" fill="url(#paint2_linear_56_401)" fill-opacity="0.4"/>
<path d="M1 11.2727V10.7727H0.5V11.2727H1ZM20.6364 11.2727H21.1364V10.7727H20.6364V11.2727ZM1 11.7727H20.6364V10.7727H1V11.7727ZM1.5 16.7273V11.2727H0.5V16.7273H1.5ZM10.8182 18.9546C8.13889 18.9546 5.73148 18.6523 4.0095 18.174C3.145 17.9339 2.48163 17.657 2.04603 17.3709C1.59007 17.0715 1.5 16.8434 1.5 16.7273H0.5C0.5 17.3642 0.959394 17.8537 1.49709 18.2068C2.05514 18.5733 2.82962 18.8841 3.74186 19.1375C5.57337 19.6463 8.07505 19.9546 10.8182 19.9546V18.9546ZM20.1364 16.7273C20.1364 16.8434 20.0463 17.0715 19.5903 17.3709C19.1547 17.657 18.4914 17.9339 17.6269 18.174C15.9049 18.6523 13.4975 18.9546 10.8182 18.9546V19.9546C13.5613 19.9546 16.063 19.6463 17.8945 19.1375C18.8067 18.8841 19.5812 18.5733 20.1393 18.2068C20.677 17.8537 21.1364 17.3642 21.1364 16.7273H20.1364ZM20.1364 11.2727V16.7273H21.1364V11.2727H20.1364Z" fill="white"/>
<ellipse cx="10.8182" cy="11.2727" rx="9.81818" ry="2.72727" fill="url(#paint3_linear_56_401)" fill-opacity="0.4" stroke="white"/>
<path fill-rule="evenodd" clip-rule="evenodd" d="M20.6364 6.36365H1V11.8182C1 13.3244 5.39575 14.5455 10.8182 14.5455C16.2406 14.5455 20.6364 13.3244 20.6364 11.8182V6.36365Z" fill="url(#paint4_linear_56_401)" fill-opacity="0.4"/>
<path d="M1 6.36365V5.86365H0.5V6.36365H1ZM20.6364 6.36365H21.1364V5.86365H20.6364V6.36365ZM1 6.86365H20.6364V5.86365H1V6.86365ZM1.5 11.8182V6.36365H0.5V11.8182H1.5ZM10.8182 14.0455C8.13889 14.0455 5.73148 13.7432 4.0095 13.2649C3.145 13.0248 2.48163 12.7479 2.04603 12.4618C1.59007 12.1624 1.5 11.9343 1.5 11.8182H0.5C0.5 12.4552 0.959394 12.9446 1.49709 13.2977C2.05514 13.6642 2.82962 13.975 3.74186 14.2284C5.57337 14.7372 8.07505 15.0455 10.8182 15.0455V14.0455ZM20.1364 11.8182C20.1364 11.9343 20.0463 12.1624 19.5903 12.4618C19.1547 12.7479 18.4914 13.0248 17.6269 13.2649C15.9049 13.7432 13.4975 14.0455 10.8182 14.0455V15.0455C13.5613 15.0455 16.063 14.7372 17.8945 14.2284C18.8067 13.975 19.5812 13.6642 20.1393 13.2977C20.677 12.9446 21.1364 12.4552 21.1364 11.8182H20.1364ZM20.1364 6.36365V11.8182H21.1364V6.36365H20.1364Z" fill="white"/>
<ellipse cx="10.8182" cy="6.36364" rx="9.81818" ry="2.72727" fill="url(#paint5_linear_56_401)" fill-opacity="0.4" stroke="white"/>
<path d="M34.9484 23.24C33.3404 23.24 32.0644 22.688 31.1204 21.584C30.1764 20.48 29.7044 18.868 29.7044 16.748C29.7044 15.46 29.8924 14.336 30.2684 13.376C30.6524 12.416 31.2204 11.672 31.9724 11.144C32.7244 10.616 33.6604 10.352 34.7804 10.352C35.3724 10.352 35.8964 10.428 36.3524 10.58C36.8164 10.732 37.2164 10.924 37.5524 11.156C37.8884 11.388 38.1604 11.628 38.3684 11.876C38.5844 12.124 38.7444 12.352 38.8484 12.56V5.168H41.0804V23H39.3884L39.1484 20.456C39.0684 20.696 38.9404 20.976 38.7644 21.296C38.5884 21.608 38.3404 21.916 38.0204 22.22C37.7004 22.516 37.2884 22.76 36.7844 22.952C36.2884 23.144 35.6764 23.24 34.9484 23.24ZM35.3444 21.536C36.6004 21.536 37.4964 21.156 38.0324 20.396C38.5764 19.628 38.8484 18.376 38.8484 16.64C38.8404 15.672 38.7164 14.848 38.4764 14.168C38.2444 13.488 37.8764 12.972 37.3724 12.62C36.8764 12.26 36.2164 12.08 35.3924 12.08C34.3684 12.08 33.5364 12.444 32.8964 13.172C32.2564 13.9 31.9364 15.056 31.9364 16.64C31.9364 18.192 32.2244 19.396 32.8004 20.252C33.3844 21.108 34.2324 21.536 35.3444 21.536ZM48.1778 23.24C47.3778 23.24 46.6698 23.1 46.0538 22.82C45.4378 22.532 44.9538 22.12 44.6018 21.584C44.2578 21.048 44.0858 20.4 44.0858 19.64C44.0858 18.264 44.5658 17.24 45.5258 16.568C46.4858 15.896 48.0258 15.536 50.1458 15.488L52.3658 15.428V14.456C52.3658 13.696 52.1378 13.096 51.6818 12.656C51.2258 12.208 50.5178 11.984 49.5578 11.984C48.8458 11.992 48.2178 12.16 47.6738 12.488C47.1378 12.816 46.7898 13.352 46.6298 14.096H44.6738C44.7218 13.288 44.9498 12.608 45.3578 12.056C45.7658 11.496 46.3338 11.072 47.0618 10.784C47.7978 10.496 48.6658 10.352 49.6658 10.352C50.7458 10.352 51.6418 10.504 52.3538 10.808C53.0738 11.112 53.6098 11.56 53.9618 12.152C54.3218 12.744 54.5018 13.472 54.5018 14.336V23H52.6058L52.4498 20.672C51.9698 21.64 51.3578 22.312 50.6138 22.688C49.8778 23.056 49.0658 23.24 48.1778 23.24ZM48.8498 21.644C49.2658 21.644 49.6778 21.568 50.0858 21.416C50.5018 21.264 50.8818 21.06 51.2258 20.804C51.5698 20.54 51.8418 20.248 52.0418 19.928C52.2498 19.6 52.3578 19.264 52.3658 18.92V16.796L50.5178 16.832C49.5738 16.848 48.7818 16.944 48.1418 17.12C47.5098 17.296 47.0338 17.572 46.7138 17.948C46.4018 18.324 46.2458 18.816 46.2458 19.424C46.2458 20.12 46.4858 20.664 46.9658 21.056C47.4538 21.448 48.0818 21.644 48.8498 21.644ZM64.0107 12.212H61.2147V19.928C61.2147 20.368 61.2587 20.692 61.3467 20.9C61.4427 21.1 61.5987 21.228 61.8147 21.284C62.0387 21.34 62.3427 21.368 62.7267 21.368H64.0827V22.856C63.9307 22.912 63.6987 22.96 63.3867 23C63.0827 23.04 62.7027 23.06 62.2467 23.06C61.3907 23.06 60.7267 22.944 60.2547 22.712C59.7827 22.48 59.4507 22.136 59.2587 21.68C59.0747 21.224 58.9827 20.664 58.9827 20V12.212H56.9667V10.592H59.0427L59.5827 6.98H61.2147V10.58H64.0107V12.212ZM70.5606 23.24C69.7606 23.24 69.0526 23.1 68.4366 22.82C67.8206 22.532 67.3366 22.12 66.9846 21.584C66.6406 21.048 66.4686 20.4 66.4686 19.64C66.4686 18.264 66.9486 17.24 67.9086 16.568C68.8686 15.896 70.4086 15.536 72.5286 15.488L74.7486 15.428V14.456C74.7486 13.696 74.5206 13.096 74.0646 12.656C73.6086 12.208 72.9006 11.984 71.9406 11.984C71.2286 11.992 70.6006 12.16 70.0566 12.488C69.5206 12.816 69.1726 13.352 69.0126 14.096H67.0566C67.1046 13.288 67.3326 12.608 67.7406 12.056C68.1486 11.496 68.7166 11.072 69.4446 10.784C70.1806 10.496 71.0486 10.352 72.0486 10.352C73.1286 10.352 74.0246 10.504 74.7366 10.808C75.4566 11.112 75.9926 11.56 76.3446 12.152C76.7046 12.744 76.8846 13.472 76.8846 14.336V23H74.9886L74.8326 20.672C74.3526 21.64 73.7406 22.312 72.9966 22.688C72.2606 23.056 71.4486 23.24 70.5606 23.24ZM71.2326 21.644C71.6486 21.644 72.0606 21.568 72.4686 21.416C72.8846 21.264 73.2646 21.06 73.6086 20.804C73.9526 20.54 74.2246 20.248 74.4246 19.928C74.6326 19.6 74.7406 19.264 74.7486 18.92V16.796L72.9006 16.832C71.9566 16.848 71.1646 16.944 70.5246 17.12C69.8926 17.296 69.4166 17.572 69.0966 17.948C68.7846 18.324 68.6286 18.816 68.6286 19.424C68.6286 20.12 68.8686 20.664 69.3486 21.056C69.8366 21.448 70.4646 21.644 71.2326 21.644Z" fill="#333333"/>
<path d="M83.0755 10.592V23H80.9275V10.592H83.0755ZM83.1235 5.66V7.964H80.8555V5.66H83.1235ZM87.1208 23V10.592H89.2688V12.392C89.4688 12.048 89.7448 11.724 90.0968 11.42C90.4568 11.116 90.8888 10.872 91.3928 10.688C91.9048 10.504 92.4928 10.412 93.1568 10.412C93.9408 10.412 94.6608 10.568 95.3168 10.88C95.9808 11.192 96.5088 11.68 96.9008 12.344C97.3008 13 97.5008 13.848 97.5008 14.888V23H95.2808V15.104C95.2808 14.136 95.0248 13.42 94.5128 12.956C94.0088 12.484 93.3528 12.248 92.5448 12.248C91.9848 12.248 91.4608 12.34 90.9728 12.524C90.4848 12.7 90.0888 12.972 89.7848 13.34C89.4808 13.7 89.3288 14.156 89.3288 14.708V23H87.1208ZM105.189 23.24C104.325 23.24 103.521 23.108 102.777 22.844C102.041 22.572 101.429 22.152 100.941 21.584C100.453 21.008 100.145 20.276 100.017 19.388H102.033C102.145 19.876 102.345 20.284 102.633 20.612C102.929 20.932 103.297 21.176 103.737 21.344C104.177 21.504 104.657 21.584 105.177 21.584C106.009 21.584 106.681 21.428 107.193 21.116C107.705 20.804 107.961 20.324 107.961 19.676C107.961 19.22 107.825 18.856 107.553 18.584C107.289 18.304 106.877 18.1 106.317 17.972L103.749 17.336C102.749 17.096 101.949 16.72 101.349 16.208C100.749 15.696 100.449 14.98 100.449 14.06C100.441 13.332 100.613 12.692 100.965 12.14C101.317 11.588 101.845 11.152 102.549 10.832C103.253 10.512 104.129 10.352 105.177 10.352C106.521 10.352 107.605 10.656 108.429 11.264C109.261 11.864 109.693 12.748 109.725 13.916H107.769C107.689 13.324 107.421 12.856 106.965 12.512C106.517 12.16 105.913 11.984 105.153 11.984C104.361 11.984 103.717 12.144 103.221 12.464C102.725 12.776 102.477 13.264 102.477 13.928C102.477 14.368 102.653 14.716 103.005 14.972C103.357 15.22 103.877 15.428 104.565 15.596L107.049 16.22C107.625 16.372 108.097 16.572 108.465 16.82C108.841 17.068 109.137 17.344 109.353 17.648C109.577 17.952 109.733 18.272 109.821 18.608C109.917 18.936 109.965 19.252 109.965 19.556C109.965 20.316 109.773 20.972 109.389 21.524C109.013 22.068 108.469 22.492 107.757 22.796C107.053 23.092 106.197 23.24 105.189 23.24ZM115.466 10.592V23H113.318V10.592H115.466ZM115.514 5.66V7.964H113.246V5.66H115.514ZM124.556 27.104C122.604 27.104 121.084 26.82 119.996 26.252C118.916 25.692 118.376 24.888 118.376 23.84C118.376 23.392 118.48 23.012 118.688 22.7C118.896 22.38 119.144 22.116 119.432 21.908C119.72 21.7 119.988 21.536 120.236 21.416C120.484 21.288 120.644 21.196 120.716 21.14C120.58 21.06 120.408 20.96 120.2 20.84C120 20.72 119.824 20.56 119.672 20.36C119.52 20.16 119.444 19.9 119.444 19.58C119.444 19.188 119.628 18.828 119.996 18.5C120.364 18.172 120.908 17.928 121.628 17.768C120.9 17.4 120.332 16.912 119.924 16.304C119.516 15.696 119.312 15.036 119.312 14.324C119.312 13.524 119.528 12.828 119.96 12.236C120.4 11.644 121.024 11.192 121.832 10.88C122.64 10.56 123.6 10.4 124.712 10.4C125.52 10.4 126.2 10.496 126.752 10.688C127.304 10.872 127.816 11.136 128.288 11.48C128.416 11.424 128.616 11.34 128.888 11.228C129.168 11.108 129.476 10.98 129.812 10.844C130.148 10.708 130.46 10.58 130.748 10.46C131.044 10.332 131.28 10.236 131.456 10.172L131.444 12.224L129.272 12.632C129.392 12.888 129.488 13.168 129.56 13.472C129.64 13.776 129.68 14.06 129.68 14.324C129.68 15.052 129.488 15.712 129.104 16.304C128.728 16.896 128.156 17.368 127.388 17.72C126.62 18.072 125.66 18.248 124.508 18.248C124.412 18.248 124.288 18.248 124.136 18.248C123.992 18.24 123.868 18.232 123.764 18.224C122.916 18.248 122.332 18.344 122.012 18.512C121.692 18.672 121.532 18.852 121.532 19.052C121.532 19.284 121.712 19.444 122.072 19.532C122.432 19.62 123.044 19.696 123.908 19.76C124.22 19.776 124.604 19.796 125.06 19.82C125.524 19.844 126.036 19.876 126.596 19.916C127.9 19.996 128.904 20.328 129.608 20.912C130.312 21.496 130.664 22.284 130.664 23.276C130.664 24.404 130.16 25.324 129.152 26.036C128.144 26.748 126.612 27.104 124.556 27.104ZM124.952 25.676C126.096 25.676 126.972 25.504 127.58 25.16C128.188 24.816 128.492 24.296 128.492 23.6C128.492 23.104 128.304 22.7 127.928 22.388C127.56 22.068 126.996 21.884 126.236 21.836L122.756 21.608C122.444 21.592 122.12 21.672 121.784 21.848C121.448 22.016 121.16 22.252 120.92 22.556C120.688 22.86 120.572 23.204 120.572 23.588C120.572 24.244 120.928 24.756 121.64 25.124C122.36 25.492 123.464 25.676 124.952 25.676ZM124.568 16.82C125.464 16.82 126.184 16.612 126.728 16.196C127.28 15.78 127.556 15.164 127.556 14.348C127.556 13.508 127.28 12.868 126.728 12.428C126.184 11.988 125.464 11.768 124.568 11.768C123.664 11.768 122.932 11.992 122.372 12.44C121.82 12.88 121.544 13.516 121.544 14.348C121.544 15.132 121.808 15.74 122.336 16.172C122.864 16.604 123.608 16.82 124.568 16.82ZM134.23 23V5.168H136.39V12.416C136.598 12.072 136.878 11.752 137.23 11.456C137.582 11.152 138.01 10.908 138.514 10.724C139.018 10.532 139.602 10.436 140.266 10.436C141.074 10.436 141.806 10.588 142.462 10.892C143.118 11.188 143.638 11.612 144.022 12.164C144.406 12.716 144.598 13.372 144.598 14.132V23H142.378V14.576C142.378 13.832 142.122 13.26 141.61 12.86C141.106 12.452 140.446 12.248 139.63 12.248C139.078 12.248 138.558 12.34 138.07 12.524C137.582 12.7 137.186 12.972 136.882 13.34C136.586 13.7 136.438 14.16 136.438 14.72V23H134.23ZM153.776 12.212H150.98V19.928C150.98 20.368 151.024 20.692 151.112 20.9C151.208 21.1 151.364 21.228 151.58 21.284C151.804 21.34 152.108 21.368 152.492 21.368H153.848V22.856C153.696 22.912 153.464 22.96 153.152 23C152.848 23.04 152.468 23.06 152.012 23.06C151.156 23.06 150.492 22.944 150.02 22.712C149.548 22.48 149.216 22.136 149.024 21.68C148.84 21.224 148.748 20.664 148.748 20V12.212H146.732V10.592H148.808L149.348 6.98H150.98V10.58H153.776V12.212ZM161.322 23.24C160.458 23.24 159.654 23.108 158.91 22.844C158.174 22.572 157.562 22.152 157.074 21.584C156.586 21.008 156.278 20.276 156.15 19.388H158.166C158.278 19.876 158.478 20.284 158.766 20.612C159.062 20.932 159.43 21.176 159.87 21.344C160.31 21.504 160.79 21.584 161.31 21.584C162.142 21.584 162.814 21.428 163.326 21.116C163.838 20.804 164.094 20.324 164.094 19.676C164.094 19.22 163.958 18.856 163.686 18.584C163.422 18.304 163.01 18.1 162.45 17.972L159.882 17.336C158.882 17.096 158.082 16.72 157.482 16.208C156.882 15.696 156.582 14.98 156.582 14.06C156.574 13.332 156.746 12.692 157.098 12.14C157.45 11.588 157.978 11.152 158.682 10.832C159.386 10.512 160.262 10.352 161.31 10.352C162.654 10.352 163.738 10.656 164.562 11.264C165.394 11.864 165.826 12.748 165.858 13.916H163.902C163.822 13.324 163.554 12.856 163.098 12.512C162.65 12.16 162.046 11.984 161.286 11.984C160.494 11.984 159.85 12.144 159.354 12.464C158.858 12.776 158.61 13.264 158.61 13.928C158.61 14.368 158.786 14.716 159.138 14.972C159.49 15.22 160.01 15.428 160.698 15.596L163.182 16.22C163.758 16.372 164.23 16.572 164.598 16.82C164.974 17.068 165.27 17.344 165.486 17.648C165.71 17.952 165.866 18.272 165.954 18.608C166.05 18.936 166.098 19.252 166.098 19.556C166.098 20.316 165.906 20.972 165.522 21.524C165.146 22.068 164.602 22.492 163.89 22.796C163.186 23.092 162.33 23.24 161.322 23.24Z" fill="url(#paint6_linear_56_401)"/>
<defs>
<linearGradient id="paint0_linear_56_401" x1="20.4482" y1="24.4546" x2="16.7791" y2="11.7385" gradientUnits="userSpaceOnUse">
<stop stop-color="#FF95C3"/>
<stop offset="1" stop-color="#FF00C7"/>
</linearGradient>
<linearGradient id="paint1_linear_56_401" x1="20.4482" y1="18.9697" x2="18.7447" y2="10.1142" gradientUnits="userSpaceOnUse">
<stop stop-color="#FF95C3"/>
<stop offset="1" stop-color="#FF00C7"/>
</linearGradient>
<linearGradient id="paint2_linear_56_401" x1="20.4482" y1="19.5455" x2="16.7791" y2="6.82944" gradientUnits="userSpaceOnUse">
<stop stop-color="#FF95C3"/>
<stop offset="1" stop-color="#FF00C7"/>
</linearGradient>
<linearGradient id="paint3_linear_56_401" x1="20.4482" y1="14.0606" x2="18.7447" y2="5.20514" gradientUnits="userSpaceOnUse">
<stop stop-color="#FF95C3"/>
<stop offset="1" stop-color="#FF00C7"/>
</linearGradient>
<linearGradient id="paint4_linear_56_401" x1="20.4482" y1="14.6364" x2="16.7791" y2="1.92035" gradientUnits="userSpaceOnUse">
<stop stop-color="#FF95C3"/>
<stop offset="1" stop-color="#FF00C7"/>
</linearGradient>
<linearGradient id="paint5_linear_56_401" x1="20.4482" y1="9.15153" x2="18.7447" y2="0.296054" gradientUnits="userSpaceOnUse">
<stop stop-color="#FF95C3"/>
<stop offset="1" stop-color="#FF00C7"/>
</linearGradient>
<linearGradient id="paint6_linear_56_401" x1="166.304" y1="28.3112" x2="159.854" y2="-17.9292" gradientUnits="userSpaceOnUse">
<stop stop-color="#C63F7A"/>
<stop offset="1" stop-color="#CC37AB"/>
</linearGradient>
</defs>
</svg>
