<svg width="135" height="34" viewBox="0 0 135 34" fill="none" xmlns="http://www.w3.org/2000/svg">
<g clip-path="url(#clip0_200_28429)">
<path d="M15.9498 6.65039V2.40039H2.5498V31.6004H15.9498V27.3504C13.2048 27.3504 10.5722 26.2599 8.63124 24.3189C6.69024 22.3779 5.5998 19.7454 5.5998 17.0004C5.5998 14.2554 6.69024 11.6228 8.63124 9.68184C10.5722 7.74084 13.2048 6.65039 15.9498 6.65039Z" fill="white"/>
<path d="M15.9502 6.65039V27.3504C18.6952 27.3504 21.3278 26.2599 23.2688 24.3189C25.2098 22.3779 26.3002 19.7454 26.3002 17.0004C26.3002 14.2554 25.2098 11.6228 23.2688 9.68184C21.3278 7.74084 18.6952 6.65039 15.9502 6.65039Z" fill="white"/>
<path d="M33.8198 9.25H36.8198V23.7H33.8198V9.25Z" fill="white"/>
<path d="M38.5 18.7499C38.5 17.7103 38.8087 16.6941 39.3869 15.8301C39.9651 14.9661 40.7868 14.2932 41.7479 13.8967C42.709 13.5003 43.7661 13.3981 44.7853 13.6031C45.8045 13.8081 46.7399 14.3111 47.4729 15.0483C48.2059 15.7856 48.7036 16.7238 48.9028 17.7442C49.1019 18.7646 48.9937 19.8211 48.5917 20.7799C48.1897 21.7386 47.5122 22.5565 46.6449 23.1297C45.7776 23.703 44.7596 24.0058 43.72 23.9999C43.0305 24.0053 42.3468 23.873 41.7091 23.6106C41.0714 23.3483 40.4924 22.9613 40.0062 22.4724C39.52 21.9834 39.1364 21.4022 38.8777 20.763C38.6191 20.1238 38.4907 19.4394 38.5 18.7499ZM46.02 18.7499C46.0082 18.3017 45.8645 17.8669 45.6069 17.5C45.3493 17.133 44.9893 16.8501 44.5717 16.6867C44.1542 16.5233 43.6978 16.4866 43.2596 16.5813C42.8213 16.6759 42.4207 16.8976 42.1078 17.2188C41.7949 17.5399 41.5836 17.9461 41.5004 18.3867C41.4172 18.8273 41.4657 19.2826 41.6399 19.6957C41.8141 20.1088 42.1062 20.4615 42.4798 20.7094C42.8533 20.9574 43.2916 21.0897 43.74 21.0899C44.0453 21.0959 44.3485 21.0388 44.6307 20.9222C44.9129 20.8057 45.168 20.6322 45.3801 20.4126C45.5922 20.193 45.7567 19.9319 45.8634 19.6459C45.9701 19.3598 46.0166 19.0548 46 18.7499H46.02Z" fill="white"/>
<path d="M60.8098 13.8001V23.2101C60.8098 26.5301 58.2098 27.9401 55.5798 27.9401C54.6521 28.0162 53.7216 27.8319 52.8931 27.4079C52.0645 26.9839 51.3707 26.337 50.8898 25.5401L53.4198 24.0801C53.6248 24.4935 53.9509 24.8345 54.3547 25.0578C54.7585 25.2811 55.2207 25.3761 55.6798 25.3301C55.9723 25.3661 56.2691 25.3371 56.549 25.2451C56.829 25.153 57.0851 25.0003 57.2991 24.7977C57.5132 24.5951 57.6798 24.3478 57.7871 24.0733C57.8944 23.7989 57.9397 23.5041 57.9198 23.2101V22.3001C57.5707 22.7234 57.1277 23.0594 56.6261 23.2816C56.1244 23.5038 55.5779 23.606 55.0298 23.5801C53.7037 23.5801 52.432 23.0533 51.4943 22.1156C50.5566 21.178 50.0298 19.9062 50.0298 18.5801C50.0298 17.254 50.5566 15.9823 51.4943 15.0446C52.432 14.1069 53.7037 13.5801 55.0298 13.5801C55.5779 13.5542 56.1244 13.6564 56.6261 13.8786C57.1277 14.1008 57.5707 14.4368 57.9198 14.8601V13.8601L60.8098 13.8001ZM57.9198 18.5501C57.9397 18.0717 57.8161 17.5982 57.5648 17.1906C57.3135 16.783 56.9461 16.4599 56.5096 16.2628C56.0732 16.0657 55.5879 16.0037 55.1159 16.0847C54.644 16.1657 54.207 16.386 53.8613 16.7173C53.5156 17.0486 53.2769 17.4758 53.1759 17.9439C53.0749 18.412 53.1162 18.8995 53.2945 19.3439C53.4729 19.7883 53.7801 20.1692 54.1766 20.4376C54.5732 20.706 55.041 20.8497 55.5198 20.8501C55.8323 20.8726 56.146 20.8293 56.4406 20.7231C56.7353 20.6168 57.0045 20.4499 57.2306 20.2331C57.4568 20.0164 57.635 19.7546 57.7537 19.4647C57.8724 19.1748 57.929 18.8632 57.9198 18.5501Z" fill="white"/>
<path d="M62.4999 18.75C62.4999 17.7112 62.8081 16.6958 63.3854 15.8322C63.9627 14.9686 64.7832 14.2957 65.7431 13.8987C66.703 13.5016 67.7591 13.3982 68.7778 13.6016C69.7965 13.805 70.7319 14.306 71.4658 15.0412C72.1996 15.7765 72.6988 16.7129 72.9002 17.7319C73.1017 18.751 72.9963 19.8069 72.5974 20.766C72.1985 21.7252 71.524 22.5444 70.6594 23.1201C69.7947 23.6958 68.7787 24.002 67.7399 24C67.0491 24.0067 66.3638 23.8754 65.7244 23.6138C65.085 23.3522 64.5042 22.9656 64.0162 22.4766C63.5281 21.9876 63.1426 21.4061 62.8822 20.7662C62.6219 20.1263 62.4919 19.4408 62.4999 18.75ZM70.0199 18.75C70.0081 18.3014 69.8641 17.8662 69.6061 17.499C69.3481 17.1319 68.9874 16.849 68.5693 16.6859C68.1512 16.5228 67.6943 16.4867 67.2558 16.5822C66.8173 16.6776 66.4167 16.9004 66.1042 17.2225C65.7917 17.5446 65.5812 17.9518 65.4992 18.393C65.4171 18.8342 65.467 19.2898 65.6427 19.7027C65.8184 20.1157 66.1121 20.4676 66.487 20.7144C66.8618 20.9611 67.3011 21.0918 67.7499 21.09C68.0552 21.096 68.3584 21.0389 68.6406 20.9223C68.9228 20.8058 69.1779 20.6323 69.39 20.4127C69.6021 20.1931 69.7666 19.932 69.8733 19.646C69.98 19.3599 70.0265 19.0549 70.0099 18.75H70.0199Z" fill="white"/>
<path d="M74.3701 11.1501C74.3701 10.7981 74.4745 10.4539 74.6701 10.1612C74.8657 9.86848 75.1437 9.64034 75.4689 9.50561C75.7942 9.37089 76.1521 9.33564 76.4974 9.40432C76.8426 9.473 77.1598 9.64253 77.4088 9.89147C77.6577 10.1404 77.8272 10.4576 77.8959 10.8028C77.9646 11.1481 77.9293 11.506 77.7946 11.8313C77.6599 12.1565 77.4317 12.4345 77.139 12.6301C76.8463 12.8257 76.5022 12.9301 76.1501 12.9301C75.6796 12.9249 75.2299 12.7357 74.8972 12.403C74.5645 12.0703 74.3753 11.6206 74.3701 11.1501ZM74.6601 13.8001H77.6601V23.7001H74.6601V13.8001Z" fill="white"/>
<path d="M90.5 18.7496C90.5336 19.408 90.4367 20.0666 90.2148 20.6874C89.993 21.3082 89.6505 21.879 89.2072 22.3669C88.7638 22.8549 88.2284 23.2503 87.6316 23.5305C87.0349 23.8107 86.3886 23.9701 85.73 23.9996C85.1711 24.0368 84.611 23.9473 84.0916 23.7378C83.5721 23.5282 83.1067 23.2041 82.73 22.7896V27.6796H79.73V13.7996H82.73V14.7296C83.1072 14.3163 83.573 13.9937 84.0925 13.7859C84.612 13.578 85.1718 13.4904 85.73 13.5296C86.386 13.5591 87.0297 13.7176 87.6244 13.9959C88.2191 14.2742 88.7532 14.667 89.1961 15.1517C89.6391 15.6364 89.9822 16.2036 90.2059 16.821C90.4296 17.4383 90.5296 18.0936 90.5 18.7496ZM87.5 18.7496C87.4882 18.2851 87.3395 17.8345 87.0727 17.4542C86.8059 17.0739 86.4327 16.7807 86 16.6116C85.5673 16.4424 85.0943 16.4048 84.6402 16.5033C84.1862 16.6018 83.7714 16.8322 83.4477 17.1655C83.124 17.4988 82.9059 17.9202 82.8208 18.377C82.7356 18.8337 82.7871 19.3054 82.9689 19.733C83.1507 20.1605 83.4546 20.5249 83.8426 20.7805C84.2306 21.0361 84.6854 21.1714 85.15 21.1696C85.4682 21.1831 85.7857 21.1292 86.0816 21.0114C86.3776 20.8936 86.6453 20.7146 86.8672 20.4861C87.0891 20.2576 87.2601 19.9847 87.3692 19.6855C87.4783 19.3862 87.5228 19.0673 87.5 18.7496Z" fill="white"/>
<path d="M99.63 20.7297C99.63 23.0097 97.63 23.9797 95.51 23.9797C94.6453 24.0575 93.7772 23.8742 93.0178 23.4535C92.2584 23.0328 91.6426 22.394 91.25 21.6197L93.83 20.1597C93.9322 20.5165 94.1538 20.8274 94.4578 21.0404C94.7618 21.2534 95.1297 21.3555 95.5 21.3297C96.21 21.3297 96.57 21.1097 96.57 20.7097C96.57 19.6197 91.7 20.1997 91.7 16.7697C91.7 14.6097 93.52 13.5297 95.58 13.5297C96.363 13.4946 97.141 13.6723 97.8311 14.0438C98.5213 14.4153 99.098 14.9668 99.5 15.6397L96.92 16.9997C96.806 16.7417 96.6198 16.5223 96.3838 16.3679C96.1477 16.2135 95.872 16.1308 95.59 16.1297C95.07 16.1297 94.76 16.3297 94.76 16.6797C94.76 17.8197 99.63 17.0697 99.63 20.7297Z" fill="white"/>
<path d="M110.5 13.7998V23.6998H107.5V22.7698C107.159 23.1815 106.726 23.5072 106.237 23.7209C105.747 23.9346 105.214 24.0301 104.68 23.9998C102.68 23.9998 100.97 22.5698 100.97 19.8998V13.7998H103.97V19.4498C103.946 19.686 103.974 19.9245 104.052 20.1489C104.13 20.3732 104.255 20.578 104.419 20.7492C104.584 20.9203 104.784 21.0537 105.005 21.1402C105.226 21.2266 105.463 21.264 105.7 21.2498C106.78 21.2498 107.54 20.6098 107.54 19.2498V13.7998H110.5Z" fill="white"/>
<path d="M127.5 17.6197V23.6997H124.5V17.8797C124.5 16.8797 124.03 16.2597 123.08 16.2597C122.13 16.2597 121.53 16.9497 121.53 18.1197V23.6997H118.53V17.8797C118.53 16.8797 118.06 16.2597 117.11 16.2597C116.16 16.2597 115.56 16.9497 115.56 18.1197V23.6997H112.56V13.7997H115.56V14.7097C115.871 14.3077 116.276 13.9893 116.741 13.7833C117.205 13.5773 117.714 13.4901 118.22 13.5297C118.727 13.5032 119.233 13.6092 119.687 13.8371C120.141 14.065 120.528 14.4071 120.81 14.8297C121.14 14.3881 121.576 14.0373 122.078 13.81C122.579 13.5826 123.131 13.4862 123.68 13.5297C126.02 13.5297 127.5 15.1497 127.5 17.6197Z" fill="white"/>
<path d="M130.02 13.7398C131.235 13.7398 132.22 12.7548 132.22 11.5398C132.22 10.3248 131.235 9.33984 130.02 9.33984C128.805 9.33984 127.82 10.3248 127.82 11.5398C127.82 12.7548 128.805 13.7398 130.02 13.7398Z" fill="white"/>
</g>
<defs>
<clipPath id="clip0_200_28429">
<rect width="134" height="34" fill="white" transform="translate(0.5)"/>
</clipPath>
</defs>
</svg>
