<svg width="34" height="34" viewBox="0 0 34 34" fill="none" xmlns="http://www.w3.org/2000/svg">
<path d="M3.54244 13.4584C3.11177 13.4584 2.7066 13.1949 2.54652 12.7671C2.3411 12.2174 2.62019 11.6054 3.16985 11.4L25.6949 2.98922C26.9727 2.51464 28.4729 3.22722 28.9107 4.51639L31.4649 12.0545C31.6534 12.6112 31.3544 13.2133 30.7991 13.4017C30.2452 13.5887 29.6403 13.2912 29.4519 12.7359L26.8976 5.1978C26.8579 5.0788 26.7389 4.95839 26.5633 4.95839L3.9136 13.3918C3.79177 13.4371 3.66569 13.4584 3.54244 13.4584Z" fill="url(#paint0_linear_2335_147)"/>
<path d="M30.1042 31.1667H3.89583C1.74675 31.1667 0 29.4199 0 27.2708V24.7917C0 24.2052 0.476 23.7292 1.0625 23.7292H1.77083C3.13792 23.7292 4.25 22.6171 4.25 21.25C4.25 19.8829 3.13792 18.7708 1.77083 18.7708H1.0625C0.476 18.7708 0 18.2948 0 17.7083V15.2292C0 13.0801 1.74675 11.3333 3.89583 11.3333H30.1042C32.2532 11.3333 34 13.0801 34 15.2292V17.7083C34 18.2948 33.524 18.7708 32.9375 18.7708H32.2292C30.8621 18.7708 29.75 19.8829 29.75 21.25C29.75 21.9116 30.0078 22.5349 30.4767 23.0024C30.9457 23.4699 31.5676 23.7278 32.2277 23.7278H32.9361C33.5226 23.7278 33.9986 24.2038 33.9986 24.7903V27.2694C34 29.4199 32.2532 31.1667 30.1042 31.1667ZM2.125 25.8414V27.2708C2.125 28.2469 2.91975 29.0417 3.89583 29.0417H30.1042C31.0802 29.0417 31.875 28.2469 31.875 27.2708V25.84C30.7799 25.7578 29.7599 25.2903 28.9737 24.5055C28.1038 23.6357 27.625 22.4797 27.625 21.25C27.625 18.8303 29.5007 16.8413 31.875 16.6586V15.2292C31.875 14.2531 31.0802 13.4583 30.1042 13.4583H3.89583C2.91975 13.4583 2.125 14.2531 2.125 15.2292V16.6586C4.49933 16.8399 6.375 18.8303 6.375 21.25C6.375 23.6697 4.49933 25.6587 2.125 25.8414Z" fill="url(#paint1_linear_2335_147)"/>
<path d="M12.396 15.2292C11.8095 15.2292 11.3335 14.7532 11.3335 14.1667V12.75C11.3335 12.1635 11.8095 11.6875 12.396 11.6875C12.9825 11.6875 13.4585 12.1635 13.4585 12.75V14.1667C13.4585 14.7532 12.9825 15.2292 12.396 15.2292Z" fill="url(#paint2_linear_2335_147)"/>
<path d="M12.396 24.0833C11.8095 24.0833 11.3335 23.6073 11.3335 23.0208V19.4792C11.3335 18.8927 11.8095 18.4167 12.396 18.4167C12.9825 18.4167 13.4585 18.8927 13.4585 19.4792V23.0208C13.4585 23.6073 12.9825 24.0833 12.396 24.0833Z" fill="url(#paint3_linear_2335_147)"/>
<path d="M12.396 30.8125C11.8095 30.8125 11.3335 30.3365 11.3335 29.75V28.3333C11.3335 27.7468 11.8095 27.2708 12.396 27.2708C12.9825 27.2708 13.4585 27.7468 13.4585 28.3333V29.75C13.4585 30.3365 12.9825 30.8125 12.396 30.8125Z" fill="url(#paint4_linear_2335_147)"/>
<defs>
<linearGradient id="paint0_linear_2335_147" x1="2.479" y1="2.84163" x2="31.6891" y2="3.32501" gradientUnits="userSpaceOnUse">
<stop stop-color="#F46C9C"/>
<stop offset="1" stop-color="#E6296B"/>
</linearGradient>
<linearGradient id="paint1_linear_2335_147" x1="0" y1="11.3333" x2="34.202" y2="11.688" gradientUnits="userSpaceOnUse">
<stop stop-color="#F46C9C"/>
<stop offset="1" stop-color="#E6296B"/>
</linearGradient>
<linearGradient id="paint2_linear_2335_147" x1="11.3335" y1="11.6875" x2="13.4713" y2="11.6953" gradientUnits="userSpaceOnUse">
<stop stop-color="#F76599"/>
<stop offset="1" stop-color="#F56094"/>
</linearGradient>
<linearGradient id="paint3_linear_2335_147" x1="11.3335" y1="18.4167" x2="13.4713" y2="18.4215" gradientUnits="userSpaceOnUse">
<stop stop-color="#F76599"/>
<stop offset="1" stop-color="#F56094"/>
</linearGradient>
<linearGradient id="paint4_linear_2335_147" x1="11.3335" y1="27.2708" x2="13.4713" y2="27.2786" gradientUnits="userSpaceOnUse">
<stop stop-color="#F76599"/>
<stop offset="1" stop-color="#F56094"/>
</linearGradient>
</defs>
</svg>
