<svg width="29" height="34" viewBox="0 0 29 34" fill="none" xmlns="http://www.w3.org/2000/svg">
<g clip-path="url(#clip0_200_28448)">
<path d="M15.4498 6.65039V2.40039H2.0498V31.6004H15.4498V27.3504C12.7048 27.3504 10.0722 26.2599 8.13124 24.3189C6.19024 22.3779 5.0998 19.7454 5.0998 17.0004C5.0998 14.2554 6.19024 11.6228 8.13124 9.68184C10.0722 7.74084 12.7048 6.65039 15.4498 6.65039Z" fill="white"/>
<path d="M15.4502 6.65039V27.3504C18.1952 27.3504 20.8278 26.2599 22.7688 24.3189C24.7098 22.3779 25.8002 19.7454 25.8002 17.0004C25.8002 14.2554 24.7098 11.6228 22.7688 9.68184C20.8278 7.74084 18.1952 6.65039 15.4502 6.65039Z" fill="white"/>
</g>
<defs>
<clipPath id="clip0_200_28448">
<rect width="29" height="34" fill="white"/>
</clipPath>
</defs>
</svg>
